<?xml version="1.0" encoding="utf-8"?>
<!-- Generator: Adobe Illustrator 25.1.0, SVG Export Plug-In . SVG Version: 6.00 Build 0)  -->
<svg version="1.1" id="Capa_1" xmlns="http://www.w3.org/2000/svg" xmlns:xlink="http://www.w3.org/1999/xlink" x="0px" y="0px"
     viewBox="-54 -54 1188 1188" style="enable-background:new -54 -54 1188 1188;" xml:space="preserve">
<style type="text/css">
	.st0{fill:#FFFFFF;stroke:#1D1D1B;stroke-width:2.8522;stroke-miterlimit:10;}
	.st1{fill:#3A393E;stroke:#000000;stroke-width:3.803;stroke-miterlimit:10;}
	.st2{fill:none;stroke:#979799;stroke-width:0.9507;stroke-miterlimit:10;}
	.st3{fill:#D1D2D4;stroke:#000000;stroke-width:1.7244;stroke-miterlimit:10;}
	.st4{fill:#F2F022;stroke:#1D1D1B;stroke-width:1.9015;stroke-miterlimit:10;}
	.st5{fill:none;stroke:#1D1D1B;stroke-width:0.9507;stroke-miterlimit:10;}
	.st6{fill:#1D1F23;stroke:#000000;stroke-width:1.9015;stroke-miterlimit:10;}
	.st7{fill:#1D1D1B;}
	.st8{fill:#D1D2D4;stroke:#000000;stroke-width:1.7244;stroke-miterlimit:9.9994;}
	.st9{fill:#D1D2D4;stroke:#000000;stroke-width:1.9998;stroke-miterlimit:9.9994;}
	.st10{fill:none;stroke:#1D1D1B;stroke-width:1.9015;stroke-miterlimit:10;}
	.st11{fill:#D1D2D4;stroke:#000000;stroke-width:1.9015;stroke-miterlimit:10;}
	.st12{fill:#FFFFFF;}
	.st13{fill:#C19B6E;stroke:#000000;stroke-width:2.0265;stroke-miterlimit:10;}
	.st14{fill:#5F3310;stroke:#000000;stroke-width:0.6157;stroke-miterlimit:10;}
	.st15{fill:#CDE606;stroke:#000000;stroke-width:1.9015;stroke-miterlimit:10;}
</style>
<g id="Capa_2_1_">
	<g>
		<g>
			<path class="st0" d="M1045.7,524.1c-38.3-56-133-112.5-224.8-98c-91.9,14.5-122.2,70-140.6,116.8s-42,137.3,16.3,225.1
				s160.8,88.3,202.7,78.6s112.7-21,154-115.2C1094.7,637.2,1072.9,563.7,1045.7,524.1z M1009,700.8
				c-21.4,63.5-79.7,114.9-168.9,105.6C778,799.9,748.5,765,719,711.2c-33.6-61.3,2.9-188.6,56.3-222.9
				c53.4-34.3,129.5-27.6,191.9,23.5C1029.7,563,1030.5,637.3,1009,700.8z"/>
			<path class="st1" d="M1045.7,524.1c-38.3-56-133-112.5-224.8-98c-91.9,14.5-122.2,70-140.6,116.8s-42,137.3,16.3,225.1
				s160.8,88.3,202.7,78.6s112.7-21,154-115.2C1094.7,637.2,1072.9,563.8,1045.7,524.1z M1052.5,643.2
				c-8.3,61.8-26.3,92.2-40.7,116.7c-20.2,34.3-74.5,55.8-74.5,55.8s-56.8,19.8-101.8,15s-88.1-36.3-111.3-60s-46.8-76.5-48.2-119.5
				c-1.3-43.1,12.5-103.1,42.9-142.4c30.5-39.3,87.1-82,169.5-60.6s111.3,56.1,120.2,66.6C1017.6,525.3,1060.8,581.4,1052.5,643.2z"
				/>
			<polyline class="st2" points="850.9,849.4 842,838.9 829.6,849.4 			"/>
			<polyline class="st2" points="876.5,848.8 867.6,838.3 855.1,848.8 			"/>
			<polyline class="st2" points="825.2,848.8 819.4,836.6 806.1,844.3 			"/>
			<polyline class="st2" points="802.1,844.1 796.7,829.8 783,836.6 			"/>
			<path class="st2" d="M779.4,835.2c0.1-0.2-2.8-14.6-2.8-14.6l-12.9,4.8"/>
			<polyline class="st2" points="758.8,822.9 757.8,809.7 744.8,813 			"/>
			<path class="st2" d="M740.8,809.7c0,0,1.3-13.8,1.1-13.7s-14.2,4-14.2,4"/>
			<polyline class="st2" points="712.3,784.7 726,782.8 724.1,796 			"/>
			<polyline class="st2" points="708.9,780 712.7,768 698.1,766.8 			"/>
			<polyline class="st2" points="695.6,763.4 699.4,751.2 685.1,749.5 			"/>
			<polyline class="st2" points="684.1,745.5 690.2,732.7 675.7,730.2 			"/>
			<polyline class="st2" points="674.3,726.3 681.9,714.8 667.8,709.3 			"/>
			<polyline class="st2" points="666.9,706.1 676.2,694.5 662.4,687.5 			"/>
			<polyline class="st2" points="662.5,685.2 672.2,673.5 658.3,666 			"/>
			<polyline class="st2" points="659.5,663.9 671.8,652.5 659,643.6 			"/>
			<polyline class="st2" points="659.6,641.7 672.5,631.2 660.7,621.8 			"/>
			<polyline class="st2" points="662.1,619.2 675.3,608.7 664.7,596.6 			"/>
			<polyline class="st2" points="666.6,592.3 680.3,583.6 671.2,569.2 			"/>
			<polyline class="st2" points="672.5,565.9 687.5,558.4 680.5,543.6 			"/>
			<path class="st2" d="M682.5,539.4c0,0,16.3-6.2,15.7-6.3s-6.4-15.1-6.4-15.1"/>
			<polyline class="st2" points="693.6,515.2 710,511.2 708.2,493 			"/>
			<polyline class="st2" points="709,491.5 727.1,489.1 725.8,470.2 			"/>
			<path class="st2" d="M726.7,469.7l15.3,0.5l1.1-13.6h1.5l13,2.7l2-12.8l12.2,3.8l4.1-12.7l17.3,11l10.5-16.6l15.5,10.9l12-14.3
				l16.2,12.7l16.7-13.3l13.4,15.9l13.8-10.5l7.7,14.9l15.2-10.9l4.6,17.6l16.4-11.2l2.5,19.9l17.9-10.2l4.2,16.6l16-8.2l1.8,18.2
				l16.3-5.9l1.1,17.3l17.5-4.1l-2.4,16.9l18-1.7l-4.3,17.6h20.2l-9,17.1l20.1,3.9l-9.6,18l19.1,9.2l-11.1,17l18.5,11.1l-14.9,13.8
				c0,0,15.6,12.3,15.1,12.7s-16.1,14.2-16.1,14.2l16.3,14l-16.7,13.8l11.2,14.2l-16.8,11.9l8.8,16.1l-16.6,10.2l6,17.2l-17.8,7.5
				l4.8,18.2l-19.8,4.8l1.4,19.8l-19.2,1.3l-4.3,19.1l-16.6-4.2l-4.7,17.5l-16.8-6l-5.2,17.2l-16.6-7.7l-7.4,16.8l-14.8-7.4
				l-9.4,14.2l-13.5-9.2l-8.1,11"/>
						<line class="st2" x1="854.3" y1="657.1" x2="907" y2="807.5"/>
		<line class="st2" x1="963.9" y1="780" x2="858.5" y2="655.5"/>
		<line class="st2" x1="845.4" y1="625.5" x2="788.5" y2="459.5"/>
		<line class="st2" x1="728.2" y1="515.2" x2="840.5" y2="631.8"/>
		<line class="st2" x1="705.3" y1="587.6" x2="834.5" y2="637"/>
		<line class="st2" x1="691.5" y1="641.4" x2="834.1" y2="641.4"/>
		<line class="st2" x1="710.3" y1="706.1" x2="837.5" y2="648.5"/>
		<line class="st2" x1="743.5" y1="777.2" x2="843.1" y2="653.8"/>
		<line class="st2" x1="836.7" y1="818.1" x2="847" y2="657.1"/>
		<path class="st2" d="M1019.5,702c-7.4-2.8-154.4-53.5-154.4-53.5"/>
		<line class="st2" x1="871" y1="641.4" x2="1027.9" y2="644.1"/>
		<line class="st2" x1="866.3" y1="633.3" x2="1014.9" y2="564.5"/>
		<line class="st2" x1="861.9" y1="627.5" x2="968.1" y2="499.9"/>
		<line class="st2" x1="852.3" y1="623.5" x2="881.8" y2="464.3"/>
		<circle class="st3" cx="849.3" cy="639.8" r="26.7"/>
				<animateTransform
    attributeName="transform"
    attributeType="XML"
    type="rotate"
    from="0 849.3 639.8"
    to="360 849.3 639.8"
    dur="1.5s"
    repeatCount="indefinite"/>
		</g>

	</g>
</g>
<g id="Capa_2_copia">
	<g>
		<g>
			<path class="st0" d="M394.9,526.7c-38.3-56-133-112.5-224.8-98c-91.9,14.5-122.2,70-140.6,116.8s-42,137.3,16.3,225.1
				s160.8,88.3,202.7,78.6s112.7-21,154-115.2C443.9,639.8,422.1,566.3,394.9,526.7z M358.2,703.4
				c-21.4,63.5-79.7,114.9-168.9,105.6c-62.1-6.5-91.6-41.4-121.1-95.2c-33.6-61.3,2.9-188.6,56.3-222.9s129.5-27.6,191.9,23.5
				C378.9,565.6,379.7,639.9,358.2,703.4z"/>
			<path class="st1" d="M394.9,526.7c-38.3-56-133-112.5-224.8-98c-91.9,14.5-122.2,70-140.6,116.8s-42,137.3,16.3,225.1
				s160.8,88.3,202.7,78.6s112.7-21,154-115.2C443.9,639.8,422.1,566.4,394.9,526.7z M401.7,645.8c-8.3,61.8-26.3,92.2-40.7,116.7
				c-20.2,34.3-74.5,55.8-74.5,55.8s-56.8,19.8-101.8,15s-88.1-36.3-111.3-60s-46.8-76.5-48.2-119.5
				c-1.3-43.1,12.5-103.1,42.9-142.4c30.5-39.3,87.1-82,169.5-60.6s111.3,56.1,120.2,66.6C366.8,527.9,410,584,401.7,645.8z"/>
			<polyline class="st2" points="200.1,852 191.2,841.5 178.8,852 			"/>
			<polyline class="st2" points="225.7,851.4 216.8,840.9 204.3,851.4 			"/>
			<polyline class="st2" points="174.4,851.4 168.6,839.2 155.3,846.9 			"/>
			<polyline class="st2" points="151.3,846.7 145.9,832.4 132.2,839.2 			"/>
			<path class="st2" d="M128.6,837.8c0.1-0.2-2.8-14.6-2.8-14.6l-12.9,4.8"/>
			<polyline class="st2" points="108,825.5 107,812.3 94,815.6 			"/>
			<path class="st2" d="M90,812.3c0,0,1.3-13.8,1.1-13.7s-14.2,4-14.2,4"/>
			<polyline class="st2" points="61.5,787.3 75.2,785.4 73.3,798.6 			"/>
			<polyline class="st2" points="58.1,782.6 61.9,770.6 47.3,769.4 			"/>
			<polyline class="st2" points="44.8,766 48.6,753.8 34.3,752.1 			"/>
			<polyline class="st2" points="33.3,748.1 39.4,735.3 24.9,732.8 			"/>
			<polyline class="st2" points="23.5,728.9 31.1,717.4 17,711.9 			"/>
			<polyline class="st2" points="16.1,708.7 25.4,697.1 11.6,690.1 			"/>
			<polyline class="st2" points="11.7,687.8 21.4,676.1 7.5,668.6 			"/>
			<polyline class="st2" points="8.7,666.5 21,655.1 8.2,646.2 			"/>
			<polyline class="st2" points="8.8,644.3 21.7,633.8 9.9,624.4 			"/>
			<polyline class="st2" points="11.3,621.8 24.5,611.3 13.9,599.2 			"/>
			<polyline class="st2" points="15.8,594.9 29.5,586.2 20.4,571.8 			"/>
			<polyline class="st2" points="21.7,568.5 36.7,561 29.7,546.2 			"/>
			<path class="st2" d="M31.7,542c0,0,16.3-6.2,15.7-6.3S41,520.6,41,520.6"/>
			<polyline class="st2" points="42.8,517.8 59.2,513.8 57.4,495.6 			"/>
			<polyline class="st2" points="58.2,494.1 76.3,491.7 75,472.8 			"/>
			<path class="st2" d="M75.9,472.3l15.3,0.5l1.1-13.6h1.5l13,2.7l2-12.8l12.2,3.8l4.1-12.7l17.3,11l10.5-16.6l15.5,10.9l12-14.3
				l16.2,12.7l16.7-13.3l13.4,15.9l13.8-10.5l7.7,14.9l15.2-10.9l4.6,17.6l16.4-11.2l2.5,19.9l17.9-10.2l4.2,16.6l16-8.2l1.8,18.2
				l16.3-5.9l1.1,17.3l17.5-4.1l-2.4,16.9l18-1.7l-4.3,17.6h20.2l-9,17.1l20.1,3.9l-9.6,18l19.1,9.2l-11.1,17l18.5,11.1l-14.9,13.8
				c0,0,15.6,12.3,15.1,12.7s-16.1,14.2-16.1,14.2l16.3,14l-16.7,13.8l11.2,14.2l-16.8,11.9l8.8,16.1L391.5,720l6,17.2l-17.8,7.5
				l4.8,18.2l-19.8,4.8l1.4,19.8l-19.2,1.3l-4.3,19.1l-16.6-4.2l-4.7,17.5l-16.8-6l-5.2,17.2l-16.6-7.7l-7.4,16.8l-14.8-7.4
				l-9.4,14.2l-13.5-9.2l-8.1,11"/>
				<line class="st2" x1="203.5" y1="659.7" x2="256.2" y2="810.1"/>
		<line class="st2" x1="313.1" y1="782.6" x2="207.7" y2="658.1"/>
		<line class="st2" x1="194.6" y1="628.1" x2="137.7" y2="462.1"/>
		<line class="st2" x1="77.4" y1="517.8" x2="189.7" y2="634.4"/>
		<line class="st2" x1="54.5" y1="590.2" x2="183.7" y2="639.6"/>
		<line class="st2" x1="40.7" y1="644" x2="183.3" y2="644"/>
		<line class="st2" x1="59.5" y1="708.7" x2="186.7" y2="651.1"/>
		<line class="st2" x1="92.7" y1="779.8" x2="192.3" y2="656.4"/>
		<line class="st2" x1="185.9" y1="820.7" x2="196.2" y2="659.7"/>
		<path class="st2" d="M368.7,704.6c-7.4-2.8-154.4-53.5-154.4-53.5"/>
		<line class="st2" x1="220.2" y1="644" x2="377.1" y2="646.7"/>
		<line class="st2" x1="215.5" y1="635.9" x2="364.1" y2="567.1"/>
		<line class="st2" x1="211.1" y1="630.1" x2="317.3" y2="502.5"/>
		<line class="st2" x1="201.5" y1="626.1" x2="231" y2="466.9"/>
		<circle class="st3" cx="198.5" cy="642.4" r="26.7"/>
							<animateTransform
    attributeName="transform"
    attributeType="XML"
    type="rotate"
    from="0 198.5 642.4"
    to="360 198.5 642.4"
    dur="1.5s"
    repeatCount="indefinite"/>
		</g>
	</g>
</g>
<g id="Capa_1_1_">
	<g id="Capa_1_2_">
		<path class="st4" d="M528.3,371.9c-23.4,8.7-51.2,20.2-74.1,29.9c-5.6,2.4-12.1-0.7-13.7-6.6L428.3,352c-0.2-5.6-32.6-3.1-34,7.8
			c-0.1,0.6,15.6,60.7,14.7,61.1c-14.2,6.9-45.9,30.6-53.7,36.9c-6.9,5.6-140.7,138.2-181.6,178.9c-5.4,5.4-3.2,14.5,4,16.9
			c13.6,4.4,33.2,10.7,47,14.6c23.4,6.6,125.2,39.7,176.5,24.6s81.3-34.5,105.9-63.1s144.9-187,144.9-187
			c17.9-24.2,35.9-48.4,56.1-71.3c1.1-1.1,1.8-2.6,2.2-4.1l12.6-46.3c2.1-7.9-5.3-14.9-13-12.3C667.8,323.2,563.2,358.8,528.3,371.9
			z M449,626c-23.8,26.4-73.7,38.4-103,34.8c-29.2-3.5-105.8-20.2-112.8-21.5s-7.8-6.5-1.1-12.4c6.7-5.8,140.8-133,146.6-137.8
			c5.7-4.8,14.4-16.5,35-29.3c20.7-12.8,52.8-33.7,74.9-43.9c15.7-7.2,104.4-36.7,154.2-53.1c9.7-3.2,17.5,8.3,11.1,16.1
			C599.9,444.1,468,605,449,626z"/>
		<path class="st5" d="M412.6,427.7c0,0,8.1,2.7,16.8-2.5s10.9-10,10.9-10"/>
		<path class="st6" d="M369.9,337.1c12.7-2.6,25.4-5.4,38.1-8c17.6-3.7,35.4-7.4,53.1-7.1c3.9,0.1,8.1,0.5,10.7,2.8
			c3.8,3.5,2.2,9.7-1.7,13.6c-4.1,3.8-9.8,5.7-15.4,7.4c-24.4,7.6-49,14.2-74,19.1c-5.4,1.1-11.3,2-15.8-0.4
			c-5.7-3-6.2-10.1-5.4-16.1C359.4,348.4,359.2,339.4,369.9,337.1z"/>
		<path class="st7" d="M564.7,525.2c-2-4.2-4.3-4.3-4.3-2.5c0.1,1.8-0.1,7.2-2.7,6.2c-2.6-1-1.1-8.1-5.5-6.5
			c-4.4,1.5,0.2,9.3,0.1,11.9c-0.1,2.7-1.1,5.2-3.3,5.5c-2.1,0.2-1.5-9.1-7.3-5.7c-5.8,3.5,1.6,10.9,1.6,13c0.2,2.1-2.2,7.1-3.7,8.7
			c-1.5,1.6-3.2,0.6-3.2,0.6s5.5-7.5,2.6-9.9c-3.1-2.3-11.1,2.8-12.8,9.5c-1.7,6.8,2.1,9.5,1.2,11.7s-5.5,9.4-7.2,7.3
			c-1.7-2,5.9-9.3,1-10s-10.2,5.5-9,9.4c1.3,3.9,0.9,5.6-0.5,5.3c-1.4-0.3-2.7-12.1-6.7-10.6s6,19,4.3,21.4s-3.3,2.5-4.5,1.3
			c-1.1-1.3-2.7-4.6-4.8-4.2c-2.2,0.5-3.4,4.1-2.4,6.5s2.8,5.2,1.6,6.6c-1.2,1.4-2.7-2.9-7.4-1.9c-4.8,1.1-7.2,8.8-7.2,8.8
			s-0.2-9-4.9-7.1c-4.7,1.9,3.4,18.5,4.9,20.9s6.6,2.1,9.4-0.9s6.8-5.7,7-9.3s-0.2-4.6-0.2-4.6s2.2-3.9,3.8-3.4
			c1.7,0.4,7.3-0.5,7.9-5.2c0.5-4.6-0.9-5.2,0.9-5.3c1.8-0.2,8.7-0.7,6.9-4.7c-1.7-4-5-5.8-4.2-6.8s6.9,1.1,10.3-0.9
			c3.3-2.1,5.3-4.6,4.7-7.5s-1.2-4.9,0.4-5.3c1.6-0.5,5.7,0.1,9.1-3.5c3.4-3.6,4.9-9.1,5-11.8c0.2-2.7,2.1-2.7,3.5-3
			c1.5-0.4,6.2-3.7,6.1-6.5c-0.1-2.8,1-5.8,1.9-4.7c0.8,1.1,1.5,10.3-3.3,12.8c-4.8,2.6-5.2,3.8-4.1,5.4c1.1,1.7,12-1.3,13.7-8.7
			s-1.3-11.7-1.3-11.7S566.7,529.4,564.7,525.2z M492.9,611.1c-1.5,2.1-2,3-3.4,2.1c-1.4-0.8-0.8-2.2-0.8-2.2c0.6-2.4,1.5-4.5,3.5-4
			C493.9,607.5,494.4,609,492.9,611.1z M532.7,556c0,0-0.6,0.5-1.2,0.2c-0.6-0.2-1.1-3.4,2.2-4.3C536.9,551.1,533.9,555.1,532.7,556
			z"/>
			<ellipse transform="matrix(0.9994 -3.390453e-02 3.390453e-02 0.9994 -21.7531 7.138)" class="st8" cx="199.6" cy="645" rx="26.7" ry="26.7"/>

			<ellipse transform="matrix(0.9994 -3.390456e-02 3.390456e-02 0.9994 -21.7538 7.1007)" class="st9" cx="198.5" cy="645" rx="15.8" ry="15.8"/>
	</g>
	<g id="Capa_2_2_">
		<g>
			<g>
				<path class="st10" d="M748.7,404.6c0,0,1.7-7,1-8.7c-0.7-1.8-0.1-2.7,0.2-2.3c0.3,0.4,5.1,4.9,4.5,7
					C753.7,402.7,750.4,405.1,748.7,404.6z"/>
				<path class="st4" d="M872.9,639.3c-0.9-1.5-26.5-14.4-31-28.5s-66.8-200.4-69.6-208c-2.8-7.5-2.7-12.9-13.7-16
					c-11.1-3.1-20,2.2-22.9,9.3s0,14.1,0,14.1s72.7,208.2,74.3,216.1c1.7,7.9,24.8,26.5,34.6,31
					C854.5,661.8,882.7,655.9,872.9,639.3z"/>
				<path class="st10" d="M767,402.4c0,0-1.4,9.6-10.9,11.8c-9.5,2.2-17-1.1-17-1.1"/>
				<path class="st11" d="M761.4,395.8l-11.3-39.3c0,0-8.9-3.4-16.2,0s-8.9,10-8.9,10l10.7,36.2c0,0,7.7,7.7,16.1,3.7
					C760.2,402.2,761.4,395.8,761.4,395.8z"/>
				<path class="st12" d="M758.6,394.2c0-0.2-9.9-34.5-9.9-34.5h-0.6l9.9,34.5H758.6z"/>
				<path class="st12" d="M742.7,403.5c0-0.6-12.8-37.8-12.8-37.8s-1.2,0-3,0.6c-1.7,0.6,10.6,35.1,10.6,35.1
					S742.7,405.5,742.7,403.5z"/>
				<path class="st12" d="M745.3,402.9c-0.2-0.4-13.5-37.2-13.5-37.2l0.8-0.6l13.8,37.3L745.3,402.9z"/>
			</g>
			<path class="st4" d="M717.2,226.8c0,0-7.9-4.4-15.8-1.9c-8.7,2.7-11.3,7.7-11.3,7.7c0.8,2.1,11.7,58.9,13,64.9
				c1.3,5.9,11.9,1.9,8,5s0.3,4.1-1.1,16.2s7.6,42.3,7.6,42.3s4.4,9.9,17.8,7c13.4-2.8,18-13.8,17.1-19.2
				c-0.8-5.4-2.8-20.8-4.2-25.6c0,0-2.1-9.8-5.1-11.9s-3-2.1-3-2.1l-8.5-14.5L717.2,226.8"/>
			<path class="st4" d="M713.1,316.4l-1.7-5.6c-1.1-3.6,0.4-7.5,3.6-9.5c2.4-1.5,5.5-2.8,9-3.1c8.2-0.6,9.7,3,10.3,3
				s2.4,9.3,2.4,9.3s-6.1,4.2-11.7,5.4C719.5,317,713.1,316.4,713.1,316.4z"/>
			<path class="st4" d="M717.2,320.8c0,0,7.6,1.6,14.3-2.3s7.2-3.8,6.7-3.9"/>
		</g>
		<path class="st13" d="M885.7,186.6c0,0-126.3,7.4-128.1,6.9c-1.8-0.5-21.4,1.3-25.9,2.7c-4.5,1.4-13.4,5.5-15.7,7.1
			c-2.4,1.6-4.3,2.7-3,8.2s7,40,9.8,52.4c2.7,12.5,17.1,28.6,29.7,33.7c12.7,5.2,23.9,8.7,36.5,6.8c8.9-1.4,27.6-3.3,38.5-6.2
			c10.9-2.9,52-7.7,57.7-11.5c5.8-3.7,5.5-10.2,6.7-35.2c1.6-24.8,0.9-50.1,0-52.8C889.4,191.2,888.4,188.2,885.7,186.6z"/>
		<path class="st14" d="M824.7,193.7c9.9,1.1,51.8-4.1,57.5-3.6s2.9,3.9-5.2,4.3c-8,0.4-55.6,3.8-70.2,4.1
			c-14.7,0.3-73.3,4.5-79.9,5.2c-8.2,0.9,5.5-4.1,10.3-5.3c4.1-1.1,9.5-1.1,15.2-1.4c5.7-0.3,58.5-3.2,61.1-3.4
			C816,193.3,821,193.2,824.7,193.7z"/>
	</g>
	<path class="st4" d="M686.9,231.1l-1.4-13.1l31.4-0.2l0.5,13.2c0.5,7.8-5.7,14.5-13.6,14.5l-4.2,0
		C691.3,245.4,687.7,239.4,686.9,231.1z"/>
	<circle class="st15" cx="700.5" cy="216.7" r="17.4"/>
</g>
</svg>
