<?xml version="1.0" encoding="utf-8"?>
<!-- Generator: Adobe Illustrator 25.1.0, SVG Export Plug-In . SVG Version: 6.00 Build 0)  -->
<svg version="1.1" id="Capa_1" xmlns="http://www.w3.org/2000/svg" xmlns:xlink="http://www.w3.org/1999/xlink" x="0px" y="0px"
     viewBox="-54 -54 1188 1188" style="enable-background:new -54 -54 1188 1188;" xml:space="preserve">
<style type="text/css">
	.st0{fill:#CDE606;stroke:#000000;stroke-width:1.9015;stroke-miterlimit:10;}
	.st1{fill:#F2F022;stroke:#1D1D1B;stroke-width:2;stroke-miterlimit:10;}
	.st2{fill:#CDE606;stroke:#000000;stroke-width:2.3157;stroke-miterlimit:10;}
	.st3{fill:#FFFFFF;stroke:#1D1D1B;stroke-width:2.4663;stroke-miterlimit:10;}
	.st4{fill:#3A393E;stroke:#000000;stroke-width:3.2884;stroke-miterlimit:10;}
	.st5{fill:none;stroke:#979799;stroke-width:0.8221;stroke-miterlimit:10;}
	.st6{fill:#D1D2D4;stroke:#000000;stroke-width:1.6442;stroke-miterlimit:10;}
	.st7{fill:none;stroke:#1D1D1B;stroke-miterlimit:10;}
	.st8{fill:#1D1F23;stroke:#000000;stroke-width:2;stroke-miterlimit:10;}
	.st9{fill:#D1D2D4;stroke:#000000;stroke-width:2;stroke-miterlimit:10;}
	.st10{fill:#1D1D1B;}
	.st11{fill:none;stroke:#1D1D1B;stroke-width:2;stroke-miterlimit:10;}
	.st12{fill:#FFFFFF;}
	.st13{fill:#FFFFFF;stroke:#1D1D1B;stroke-width:3;stroke-miterlimit:10;}
	.st14{fill:#3A393E;stroke:#000000;stroke-width:4;stroke-miterlimit:10;}
	.st15{fill:none;stroke:#979799;stroke-miterlimit:10;}
	.st16{fill:#C19B6E;stroke:#000000;stroke-width:2;stroke-miterlimit:10;}
	.st17{fill:#5F3310;stroke:#000000;stroke-width:2;stroke-miterlimit:10;}
</style>
<path class="st0" d="M832.2,131.9c-0.1-3.5-5.8-5.8-8.7-7.6c-1.3-0.8-0.9-2.8,0.6-3.2c40.6-8.7,58-17.4,59.8-16.6
	c7.8-1.1,12.2,19.7,6.5,20.1c-1.6,0.1-52.5,13.5-58.9,15.5C822.3,141,832.4,138,832.2,131.9z"/>
<path class="st1" d="M824.1,121.1L556,206.4l5.9,20l269.6-86.2C831.5,140.1,842,121.5,824.1,121.1z"/>
<path class="st2" d="M594,209.7c2.7,11.5-1.5,9.7-3.3,10.1c-45.3,16.9-70.1,25.4-72.3,24.4c-9.5,1.3-13.3-26.3-6.4-26.8
	c1.9-0.1,50.5-16.6,58.3-19.1C581.5,197.3,587.9,193.3,594,209.7z"/>
<g id="Capa_3">
	<g>
		<g>
			<g>
				<path class="st3" d="M338.7,458.6c-37-50.7-122.8-101.8-201.2-88.7C59.1,383.1,36.6,433.3,24,475.6
					C11.3,518-2.8,599.9,53.7,679.3s145.2,79.9,180.7,71.1c35.6-8.8,96-19,125.2-104.3C388.9,560.9,364.9,494.5,338.7,458.6z
					 M319.2,618.5c-14.1,57.5-60.9,104-138.8,95.5c-54.1-5.9-82.1-37.4-111.3-86.2c-33.3-55.5-10.6-170.6,33.3-201.6
					c43.8-31,110.1-25,167.6,21.3S333.3,561,319.2,618.5z"/>
				<path class="st4" d="M338.7,458.6c-37-50.7-122.8-101.8-201.2-88.7C59.1,383.1,36.6,433.3,24,475.6
					C11.3,518-2.8,599.9,53.7,679.3s145.2,79.9,180.7,71.1c35.6-8.8,96-19,125.2-104.3C388.9,560.9,364.9,494.5,338.7,458.6z
					 M352.8,566.4c-2.9,55.9-16.4,83.4-27.1,105.6c-15.1,31.1-60.6,50.5-60.6,50.5s-47.7,17.9-87,13.5
					c-39.2-4.4-78.7-32.9-100.4-54.3C56.1,660.3,32,612.5,27.9,573.6c-4.1-39,3.7-93.3,27.3-128.9s69.7-74.2,142.4-54.8
					s100.1,50.8,108.5,60.3C314.5,459.7,355.7,510.5,352.8,566.4z"/>
				<polyline class="st5" points="192.8,752.9 184.3,743.4 174.3,752.9 				"/>
				<polyline class="st5" points="214.8,752.4 206.4,742.9 196.3,752.4 				"/>
				<polyline class="st5" points="170.5,752.4 164.6,741.4 153.7,748.3 				"/>
				<polyline class="st5" points="150.2,748.2 144.5,735.2 133.2,741.4 				"/>
				<path class="st5" d="M130,740.1c0.1-0.2-3.5-13.2-3.5-13.2l-10.8,4.3"/>
				<polyline class="st5" points="111.3,729 109.5,717 98.5,720 				"/>
				<path class="st5" d="M94.8,717c0,0,0.2-12.5,0-12.4s-12,3.7-12,3.7"/>
				<polyline class="st5" points="68.5,694.4 80.2,692.7 79.4,704.6 				"/>
				<polyline class="st5" points="65.2,690.1 67.6,679.3 54.9,678.2 				"/>
				<polyline class="st5" points="52.5,675.1 54.9,664.1 42.5,662.6 				"/>
				<polyline class="st5" points="41.3,658.9 45.7,647.4 33,645.1 				"/>
				<polyline class="st5" points="31.6,641.5 37.3,631.2 24.7,626.2 				"/>
				<polyline class="st5" points="23.8,623.3 31,612.8 18.5,606.4 				"/>
				<polyline class="st5" points="18.5,604.4 26.1,593.8 13.5,587 				"/>
				<polyline class="st5" points="14.4,585.1 24.2,574.8 12.6,566.7 				"/>
				<polyline class="st5" points="12.9,565 23.4,555.5 12.6,547 				"/>
				<polyline class="st5" points="13.5,544.7 24.2,535.2 14.3,524.2 				"/>
				<polyline class="st5" points="15.6,520.3 26.8,512.4 18,499.4 				"/>
				<polyline class="st5" points="18.9,496.5 31.3,489.6 24.2,476.3 				"/>
				<path class="st5" d="M25.7,472.5c0,0,13.6-5.6,13.2-5.7c-0.5-0.1-6.6-13.6-6.6-13.6"/>
				<polyline class="st5" points="33.6,450.6 47.5,446.9 44.7,430.5 				"/>
				<polyline class="st5" points="45.3,429.1 60.8,426.9 58.4,409.9 				"/>
				<path class="st5" d="M59.1,409.4l13.3,0.5v-12.3h1.3l11.4,2.4l0.9-11.6l10.8,3.4l2.7-11.4l15.7,10l7.9-15l14.1,9.9l9.4-12.9
					l14.9,11.4l13.5-12.1l12.7,14.4l11.2-9.5l7.7,13.5l12.4-9.9l5.2,16l13.4-10.1l3.5,18l14.7-9.3l4.7,15l13.3-7.4l2.8,16.4
					l13.7-5.3l2.1,15.7l14.8-3.7l-0.9,15.3l15.4-1.6l-2.5,15.9h17.4l-6.6,15.4l17.6,3.6l-7,16.3l17.2,8.3l-8.4,15.3l16.8,10
					l-12,12.5c0,0,14.3,11.1,14,11.5c-0.4,0.4-13,12.9-13,12.9l15.1,12.7l-13.5,12.5l10.7,12.9l-13.7,10.8l8.7,14.5l-13.6,9.2
					l6.4,15.5l-14.9,6.8l5.4,16.4l-16.8,4.4l2.6,17.9l-16.5,1.2l-2.4,17.3l-14.6-3.8l-2.8,15.8l-15-5.4l-3.3,15.5l-14.9-6.9
					l-5.2,15.2l-13.3-6.7l-7.2,12.8l-12.3-8.3l-6.2,10"/>
			</g>
			<line class="st5" x1="182.3" y1="579" x2="238.4" y2="715"/>
			<line class="st5" x1="285.6" y1="690.1" x2="185.9" y2="577.5"/>
			<line class="st5" x1="172.5" y1="550.3" x2="111.8" y2="400.2"/>
			<line class="st5" x1="63.5" y1="450.6" x2="168.7" y2="556"/>
			<line class="st5" x1="48.7" y1="516.1" x2="163.9" y2="560.7"/>
			<line class="st5" x1="40.6" y1="564.8" x2="163.9" y2="564.8"/>
			<line class="st5" x1="61.3" y1="623.3" x2="167.3" y2="571.2"/>
			<line class="st5" x1="94.9" y1="687.6" x2="172.5" y2="575.9"/>
			<line class="st5" x1="178.3" y1="724.6" x2="176" y2="579"/>
			<path class="st5" d="M328.3,619.6c-6.6-2.6-137.2-48.4-137.2-48.4"/>
			<line class="st5" x1="195.7" y1="564.8" x2="331.6" y2="567.1"/>
			<line class="st5" x1="191.1" y1="557.5" x2="314.8" y2="495.2"/>
			<line class="st5" x1="186.9" y1="552.2" x2="269.9" y2="436.7"/>
			<line class="st5" x1="178.3" y1="548.5" x2="192.8" y2="404.5"/>
							<animateTransform
    attributeName="transform"
    attributeType="XML"
    type="rotate"
    from="0 190.22 554.03"
    to="360 190.22 554.03"
    dur="1s"
    repeatCount="indefinite"/>
	</g>
	<path class="st6" d="M153.9,561.5L187,541c0,0,15.8,2.6,18.9,9.1c3.1,6.5,2,11.4,2,11.4L178.3,583c0,0-9.6,7.7-18.5,2.6
				C144.4,576.5,153.9,561.5,153.9,561.5z"/>
		</g>

</g>
<g id="Capa_1_1_">
	<path class="st1" d="M485,323.2c-24.9,7.9-55.1,19.2-77.4,27.6l5-64.1c0-5.9-29.3-6.5-30.8,4.7c-0.1,0.7-4.9,70.9-5.7,71.2
		c-13,5.8-42.3,27.5-49.4,33.4c-7.6,6.2-180,180.5-180,180.5s35.1,17.8,56,27.1s111.5,54.2,158.2,43.5s74.2-28,97.3-55.5
		C481.3,564,594.4,410,594.4,410c17.3-24.2,34.7-48.4,54.2-70.9l18.5-68.4C667.2,270.8,525.4,310.3,485,323.2z M405.9,581.9
		c-22.2,25.3-67.6,32.9-93.8,26.2s-94.7-31.9-100.9-33.9s-6.9-7.7-0.7-13.1c6.2-5.4,130.9-125.4,136.2-129.9
		c5.3-4.4,13.5-15.8,32.4-27.3c19-11.4,48.6-30.1,68.7-38.5S619,317.1,619,317.1C616.8,318.9,428.1,556.6,405.9,581.9z"/>
	<path class="st7" d="M379.1,370.1c0,0,7.2,3.7,15.2-0.9s10.1-9.3,10.1-9.3"/>
	<path class="st8" d="M360.5,265.3c11.5-1.5,23-3.1,34.5-4.6c15.9-2.1,32.1-4.3,48.1-2.1c3.5,0.5,7.3,1.3,9.5,4c3.3,4,1.8,10.4-2,14
		s-9,5-14.1,6.3c-22.1,5.5-44.6,9.9-67.2,12.6c-4.9,0.6-10.3,0.9-14.2-2c-5-3.8-5.3-11.2-4.4-17.4
		C350.7,276.1,350.8,266.6,360.5,265.3z"/>
	<path class="st9" d="M155.7,555.9c0,0,4.9-10.4,19.6-11.1c14.7-0.7,20.9,17.1,22.4,35.3c1.6,18.2-16,24.9-25.8,24
		s-14.7-12.2-14.7-12.2s-12.9-2.8-13.3-17.4S155.7,555.9,155.7,555.9z"/>
	<path class="st7" d="M164.2,561c0,0,6.8,5.2,5.1,14.3s-6.4,11.7-6.4,11.7"/>
	<path class="st10" d="M513.1,487.7c-1.7-4.7-3.8-4.9-3.8-3s-0.3,7.5-2.6,6.2c-2.3-1.3-0.7-8.6-4.7-7.4s-0.1,9.7-0.3,12.5
		c-0.2,2.8-1.2,5.4-3.1,5.4s-1.1-9.7-6.4-6.7s1,11.5,1.1,13.7s-2.2,7.3-3.6,8.7c-1.5,1.5-2.9,0.4-2.9,0.4s5.3-7.3,2.6-10.1
		c-2.7-2.7-10.1,1.8-11.8,8.8c-1.7,7,1.6,10.2,0.7,12.4c-0.9,2.1-5.3,9.3-6.7,7c-1.4-2.3,5.6-9.2,1.2-10.5c-4.4-1.2-9.4,4.8-8.4,9
		s0.7,5.9-0.6,5.5c-1.3-0.4-2.1-13-5.7-11.8s4.9,20.6,3.3,22.9c-1.6,2.3-3,2.3-4.1,0.9c-1-1.4-2.2-5.1-4.2-4.9
		c-2,0.2-3.2,3.9-2.4,6.5c0.8,2.6,2.3,5.7,1.3,7.2s-2.3-3.3-6.6-2.7c-4.3,0.7-6.7,8.5-6.7,8.5s0.1-9.4-4.2-7.9
		c-4.3,1.5,2.5,19.8,3.8,22.4c1.3,2.7,5.9,2.8,8.4,0c2.6-2.8,6.3-5.3,6.6-9.1c0.3-3.8,0-4.8,0-4.8s2.1-3.8,3.6-3.3
		c1.5,0.6,6.6,0.2,7.3-4.7c0.7-4.8-0.7-5.5,1-5.5c1.6,0,7.8,0.1,6.4-4.3c-1.5-4.4-4.3-6.6-3.6-7.6c0.7-1,6.2,1.9,9.3,0
		c3-1.8,5-4.3,4.5-7.4c-0.4-3.1-0.9-5.2,0.5-5.5s5.1,0.7,8.3-2.8c3.2-3.5,4.7-9.1,4.9-11.9c0.2-2.8,1.9-2.6,3.3-2.8s5.7-3.3,5.7-6.2
		c0-3,1.1-6,1.8-4.7c0.7,1.3,1.1,10.9-3.3,13.1c-4.4,2.2-4.7,3.5-3.9,5.3c0.9,1.9,10.8-0.1,12.6-7.7c1.8-7.6-0.8-12.4-0.8-12.4
		S514.8,492.3,513.1,487.7z M445.8,570.6c-1.4,2-1.9,2.9-3.1,1.9s-0.7-2.4-0.7-2.4c0.6-2.5,1.6-4.5,3.2-3.8
		C446.9,567,447.2,568.6,445.8,570.6z M483.4,516.8c0,0-0.5,0.4-1.1,0.2c-0.6-0.3-0.9-3.6,2.1-4.2
		C487.3,512.1,484.5,516,483.4,516.8z"/>

</g>
<g id="Capa_2_1_">
	<g>
		<g>
			<path class="st11" d="M745.4,417c0,0,1.8-7.3,1-9.2c-0.7-1.9-0.1-2.8,0.2-2.4s5.4,5.1,4.7,7.4C750.6,415.1,747.2,417.5,745.4,417
				z"/>
			<path class="st1" d="M860.7,666.4c-0.9-1.6-12.6-17.6-17.3-32.4s-70.2-210.8-73.2-218.7s-2.8-13.6-14.4-16.8
				c-11.6-3.3-21.1,2.4-24,9.8s0,14.8,0,14.8s76.4,219,78.2,227.3s13.7,33,24,37.7S871.1,683.9,860.7,666.4z"/>
			<path class="st11" d="M764.6,414.7c0,0-1.4,10.1-11.4,12.4s-17.9-1.1-17.9-1.1"/>
			<path class="st9" d="M758.8,407.8l-11.9-41.3c0,0-9.3-3.6-17,0s-9.3,10.5-9.3,10.5l11.3,38.1c0,0,8.1,8.1,16.9,3.9
				C757.5,414.6,758.8,407.8,758.8,407.8z"/>
			<path class="st12" d="M755.8,406.1c0-0.2-10.4-36.3-10.4-36.3h-0.7l10.4,36.3H755.8z"/>
			<path class="st12" d="M739.1,415.9c0-0.6-13.5-39.8-13.5-39.8s-1.3,0-3.1,0.6s11.1,36.9,11.1,36.9S739.1,418,739.1,415.9z"/>
			<path class="st12" d="M741.8,415.3c-0.2-0.4-14.1-39.1-14.1-39.1l0.8-0.7l14.5,39.2L741.8,415.3z"/>
		</g>
		<g>
			<g>
				<path class="st13" d="M1007.9,558.9C962.9,497.2,858.6,435,763.2,451s-122.7,77-138.1,128.6c-15.4,51.5-32.6,151.1,36.1,247.7
					s176.6,97.2,219.9,86.5s116.7-23.1,152.3-126.8C1068.9,683.3,1039.8,602.5,1007.9,558.9z M984.2,753.4
					c-17.2,69.9-74.1,126.5-168.8,116.2c-65.9-7.2-99.8-45.5-135.4-104.8c-40.5-67.5-12.9-207.5,40.5-245.3
					c53.3-37.7,133.9-30.4,203.8,25.9C994.3,601.7,1001.4,683.5,984.2,753.4z"/>
				<path class="st14" d="M1007.9,558.9C962.8,497.2,858.6,435,763.1,451c-95.4,16-122.7,77-138.1,128.6
					c-15.4,51.6-32.6,151.1,36.1,247.7s176.6,97.2,219.9,86.5c43.2-10.7,116.7-23.1,152.3-126.8
					C1068.9,683.3,1039.8,602.5,1007.9,558.9z M1025.1,690c-3.6,68-19.9,101.4-33,128.5c-18.3,37.8-73.7,61.4-73.7,61.4
					s-58.1,21.8-105.8,16.5s-95.7-40-122.1-66.1c-26.4-26.1-55.7-84.2-60.7-131.6c-5-47.4,4.4-113.5,33.2-156.7
					s84.7-90.2,173.2-66.7c88.4,23.6,121.8,61.8,132,73.3C978.4,560.2,1028.6,622,1025.1,690z"/>
				<polyline class="st15" points="830.4,916.9 820.1,905.3 807.9,916.9 				"/>
				<polyline class="st15" points="857.2,916.2 847,904.6 834.7,916.2 				"/>
				<polyline class="st15" points="803.3,916.2 796.1,902.9 782.8,911.3 				"/>
				<polyline class="st15" points="778.6,911.1 771.7,895.3 757.9,902.9 				"/>
				<path class="st15" d="M754,901.2c0.1-0.2-4.2-16.1-4.2-16.1l-13.2,5.3"/>
				<polyline class="st15" points="731.3,887.7 729.1,873.2 715.7,876.9 				"/>
				<path class="st15" d="M711.3,873.2c0,0,0.2-15.2,0-15.1c-0.2,0.1-14.6,4.4-14.6,4.4"/>
				<polyline class="st15" points="679.2,845.7 693.4,843.6 692.5,858.1 				"/>
				<polyline class="st15" points="675.2,840.5 678.1,827.3 662.7,826 				"/>
				<polyline class="st15" points="659.8,822.3 662.7,808.8 647.6,807 				"/>
				<polyline class="st15" points="646.1,802.6 651.5,788.5 636.1,785.7 				"/>
				<polyline class="st15" points="634.3,781.4 641.3,768.8 626,762.7 				"/>
				<polyline class="st15" points="624.8,759.2 633.6,746.4 618.4,738.7 				"/>
				<polyline class="st15" points="618.4,736.2 627.6,723.3 612.4,715 				"/>
				<polyline class="st15" points="613.4,712.8 625.4,700.2 611.2,690.4 				"/>
				<polyline class="st15" points="611.6,688.3 624.4,676.8 611.2,666.4 				"/>
				<polyline class="st15" points="612.4,663.6 625.4,652 613.3,638.7 				"/>
				<polyline class="st15" points="614.9,634 628.5,624.3 617.8,608.5 				"/>
				<polyline class="st15" points="618.9,604.9 634,596.6 625.4,580.3 				"/>
				<path class="st15" d="M627.2,575.7c0,0,16.6-6.8,16-7s-8-16.6-8-16.6"/>
				<polyline class="st15" points="636.8,549.1 653.7,544.6 650.3,524.6 				"/>
				<polyline class="st15" points="651,523 669.8,520.3 666.9,499.6 				"/>
				<path class="st15" d="M667.8,499l16.1,0.6v-15h1.6l13.9,3l1-14.1l13.2,4.1l3.3-13.9l19.1,12.1l9.6-18.2l17.2,12l11.4-15.7
					l18.1,13.9l16.4-14.7l15.4,17.5l13.6-11.6l9.3,16.4l15.1-12l6.4,19.4l16.3-12.3l4.3,21.9l17.9-11.3l5.8,18.2l16.1-9l3.4,20
					l16.7-6.4l2.6,19l18-4.5l-1.1,18.6l18.8-1.9l-3,19.3h21.2l-8,18.8l21.4,4.3l-8.6,19.8l20.9,10.1l-10.2,18.7l20.4,12.2
					l-14.6,15.2c0,0,17.4,13.6,17,14s-15.8,15.7-15.8,15.7l18.3,15.4l-16.4,15.2l13,15.7l-16.7,13.1l10.6,17.7l-16.6,11.2l7.8,18.9
					l-18.1,8.2l6.6,20l-20.4,5.3l3.1,21.8l-20.1,1.4l-2.9,21l-17.8-4.7l-3.4,19.2l-18.2-6.6l-4,18.9l-18.1-8.4l-6.4,18.4l-16.1-8.1
					l-8.7,15.6l-15-10.1l-7.6,12.1"/>
			</g>
			<line class="st15" x1="817.7" y1="705.3" x2="885.9" y2="870.8"/>
			<line class="st15" x1="943.4" y1="840.5" x2="822.1" y2="703.5"/>
			<line class="st15" x1="805.7" y1="670.5" x2="732" y2="487.8"/>
			<line class="st15" x1="673.1" y1="549.1" x2="801.1" y2="677.4"/>
			<line class="st15" x1="655.2" y1="628.8" x2="795.2" y2="683.1"/>
			<line class="st15" x1="645.3" y1="688" x2="795.2" y2="688"/>
			<line class="st15" x1="670.4" y1="759.2" x2="799.4" y2="695.8"/>
			<line class="st15" x1="711.3" y1="837.4" x2="805.7" y2="701.6"/>
			<line class="st15" x1="812.8" y1="882.5" x2="810" y2="705.3"/>

			<path class="st15" d="M995.3,754.7c-8-3.1-166.9-58.9-166.9-58.9"/>
			<line class="st15" x1="834" y1="688" x2="999.3" y2="690.9"/>
			<line class="st15" x1="828.4" y1="679.1" x2="978.8" y2="603.3"/>
			<line class="st15" x1="823.3" y1="672.7" x2="924.2" y2="532.2"/>
			<line class="st15" x1="812.8" y1="668.2" x2="830.4" y2="493.1"/>
<animateTransform
    attributeName="transform"
    attributeType="XML"
    type="rotate"
    from="0 823.50 681.37"
    to="360 823.50 681.37"
    dur="1s"
    repeatCount="indefinite"/>
		</g>
					<path class="st9" d="M783.1,684l40.2-24.9c0,0,19.2,3.1,23,11c3.7,7.9,2.4,13.9,2.4,13.9l-35.8,26.2c0,0-11.7,9.4-22.4,3.1
				C771.5,702.3,783.1,684,783.1,684z"/>
		<g>
			<path class="st11" d="M682.1,452.9c0,0,1.8-7.3,1-9.2c-0.7-1.9-0.1-2.8,0.2-2.4s5.4,5.1,4.7,7.4
				C687.4,451,683.9,453.4,682.1,452.9z"/>
			<path class="st1" d="M812.7,699.8c-0.9-1.6-27.9-15.1-32.6-29.9s-70.2-210.8-73.2-218.7c-3-7.9-2.8-13.6-14.4-16.8
				c-11.6-3.3-21.1,2.4-24,9.8s0,14.8,0,14.8s76.4,219,78.2,227.3s26.1,27.9,36.4,32.6C793.4,723.5,823.1,717.3,812.7,699.8z"/>
			<path class="st11" d="M701.4,450.6c0,0-1.4,10.1-11.4,12.4s-17.9-1.1-17.9-1.1"/>
			<path class="st9" d="M695.5,443.7l-11.9-41.3c0,0-9.3-3.6-17,0s-9.3,10.5-9.3,10.5l11.3,38.1c0,0,8.1,8.1,16.9,3.9
				C694.2,450.5,695.5,443.7,695.5,443.7z"/>
			<path class="st12" d="M692.5,442c0-0.2-10.4-36.3-10.4-36.3h-0.7l10.4,36.3H692.5z"/>
			<path class="st12" d="M675.8,451.8c0-0.6-13.5-39.8-13.5-39.8s-1.3,0-3.1,0.6s11.1,36.9,11.1,36.9S675.8,453.9,675.8,451.8z"/>
			<path class="st12" d="M678.5,451.1c-0.2-0.4-14.1-39.1-14.1-39.1l0.8-0.7l14.5,39.2L678.5,451.1z"/>
		</g>
		<path class="st1" d="M653.6,269.9c0.9,2.2,12.9,55.4,14.2,61.6s-1,10.1-5.1,13.3c-4.1,3.3-19.8,5-21.3,17.8
			c-1.5,12.7,8,44.4,8,44.4s4.6,10.4,18.7,7.4c14.1-3,18.9-14.5,18-20.1s-3-21.9-4.4-27c-1.5-5,21.9-12.7,24.3-7.7
			c2.4,5,7.7,18.7,9.8,24.3c2.1,5.6,17.5,7.1,25.8,4.1s14.8-13.6,12.7-21s-16.6-41.5-17.2-43.9s-18.7-3.3-24.6-2.1
			c-5.9,1.2-9.2-2.4-10.7-8.3s-13.9-53-13.9-53s-13.9-0.6-21.9,3C658,266.3,653.6,269.9,653.6,269.9z"/>
		<path class="st1" d="M644.7,360.2l-1.8-5.9c-1.1-3.8,0.4-7.9,3.8-9.9c2.5-1.5,5.8-2.9,9.5-3.2c8.7-0.7,10.2,3.1,10.8,3.1
			s2.5,9.8,2.5,9.8s-6.4,4.4-12.3,5.7S644.7,360.2,644.7,360.2z"/>
		<path class="st1" d="M649,364.9c0,0,8,1.7,15-2.5s7.6-4,7-4.1"/>
		<path class="st1" d="M712.8,334.2l-1.8-5.9c-1.1-3.8,0.4-7.9,3.8-9.9c2.5-1.5,5.8-2.9,9.5-3.2c8.7-0.7,10.2,3.1,10.8,3.1
			s2.5,9.8,2.5,9.8s-6.4,4.4-12.3,5.7S712.8,334.2,712.8,334.2z"/>
		<path class="st1" d="M717.1,338.9c0,0,8,1.7,15-2.5s7.6-4,7-4.1"/>
	</g>
	<path class="st16" d="M885.7,194.4c0,0-87.7-49.8-90.1-50.4c-2.4-0.6-10.5-5.6-17.3-3.8s-142.6,46.8-146.4,48.8s-6.9,3.3-6.2,10.2
		s8,75.8,8.9,91.3s17.6,35.6,34.4,42c16.9,6.4,48.4,12.9,61.3,15.8s30.2,3.6,46.4,0s91.8-26.7,100.9-31.3c9.1-4.7,18.7-13.8,18-43.8
		s-3.3-60.4-4-63.8C889.9,200.2,889.2,196.5,885.7,194.4z"/>
	<path class="st17" d="M790.9,149.4c13.9,8.3,72.3,43.6,80.3,47.4s5.3,7.4-6.2,10.4c-11.6,3-101.9,31.7-123,34.7
		c-21,3-33.9-1.6-43.4-6.1s-46.4-26.4-52.7-30.4s-4.4-9.1,3.8-11.8s121.4-43.3,125.1-44.9C778.5,146.9,785.7,146.3,790.9,149.4z"/>
</g>
</svg>
